<svg class="vsp" xmlns="http://www.w3.org/2000/svg" viewBox="0 0 1000 430" role="img" aria-label="Head wiring of MHA, GQA-8 and MQA: which cached K/V each query head reads">
<style>.vsp{font-family:var(--ie-font-mono,"IBM Plex Mono",ui-monospace,Consolas,monospace)} .vsp text{font-size:13px;fill:var(--ie-ink,#1c232b)} .vsp .sm{font-size:11.5px;fill:var(--ie-ink-2,#4a5561)} .vsp .xs{font-size:10.5px;fill:var(--ie-ink-2,#4a5561)} .vsp .b{font-weight:600} .vsp .hd{font-family:var(--ie-font-ui,Archivo,"Helvetica Neue",Arial,sans-serif);font-size:15px;font-weight:700;fill:var(--ie-ink,#1c232b)} .vsp .lg{font-size:20px;font-weight:700} .vsp .n{fill:var(--ie-free,#fff);stroke:var(--ie-ink-2,#4a5561);stroke-width:1.2} .vsp .n-c{fill:var(--ie-compute-bg,#d9efec);stroke:var(--ie-compute,#0e7c72);stroke-width:1.3} .vsp .n-m{fill:var(--ie-memory-bg,#f6e8c8);stroke:var(--ie-memory,#b5790a);stroke-width:1.3} .vsp .n-s{fill:var(--ie-shared-bg,#e5e1f8);stroke:var(--ie-shared,#5b47c9);stroke-width:1.3} .vsp .n-x{fill:var(--ie-waste-bg,#f6dade);stroke:var(--ie-waste,#b42b3e);stroke-width:1.3} .vsp .n-p{fill:var(--ie-paper-2,#eceee9);stroke:var(--ie-rule,#d5d9d3);stroke-width:1} .vsp .n-mm{fill:var(--ie-memory,#b5790a);fill-opacity:.5;stroke:var(--ie-memory,#b5790a);stroke-width:1.3} .vsp .grp{fill:none;stroke:var(--ie-ink-2,#4a5561);stroke-width:1;stroke-dasharray:5 4;opacity:.75} .vsp .grp-m{fill:var(--ie-memory,#b5790a);fill-opacity:.06;stroke:var(--ie-memory,#b5790a);stroke-width:1.2;stroke-dasharray:6 4} .vsp .w-i{fill:none;stroke:var(--ie-ink-2,#4a5561);stroke-width:1.3} .vsp .w-c{fill:none;stroke:var(--ie-compute,#0e7c72);stroke-width:1.4} .vsp .w-m{fill:none;stroke:var(--ie-memory,#b5790a);stroke-width:1.4} .vsp .w-s{fill:none;stroke:var(--ie-shared,#5b47c9);stroke-width:1.4} .vsp .w-x{fill:none;stroke:var(--ie-waste,#b42b3e);stroke-width:1.4} .vsp .dash{stroke-dasharray:4 3} .vsp .rule{fill:none;stroke:var(--ie-rule,#d5d9d3);stroke-width:1} .vsp .f-i{fill:var(--ie-ink-2,#4a5561)} .vsp .f-c{fill:var(--ie-compute,#0e7c72)} .vsp .f-m{fill:var(--ie-memory,#b5790a)} .vsp .f-s{fill:var(--ie-shared,#5b47c9)} .vsp .f-x{fill:var(--ie-waste,#b42b3e)}</style>
<defs><marker id="heads-ai" viewBox="0 0 10 10" refX="9" refY="5" markerWidth="7" markerHeight="7" orient="auto-start-reverse"><path d="M0,0 L10,5 L0,10 z" class="f-i"/></marker><marker id="heads-ac" viewBox="0 0 10 10" refX="9" refY="5" markerWidth="7" markerHeight="7" orient="auto-start-reverse"><path d="M0,0 L10,5 L0,10 z" class="f-c"/></marker><marker id="heads-am" viewBox="0 0 10 10" refX="9" refY="5" markerWidth="7" markerHeight="7" orient="auto-start-reverse"><path d="M0,0 L10,5 L0,10 z" class="f-m"/></marker><marker id="heads-as" viewBox="0 0 10 10" refX="9" refY="5" markerWidth="7" markerHeight="7" orient="auto-start-reverse"><path d="M0,0 L10,5 L0,10 z" class="f-s"/></marker><marker id="heads-ax" viewBox="0 0 10 10" refX="9" refY="5" markerWidth="7" markerHeight="7" orient="auto-start-reverse"><path d="M0,0 L10,5 L0,10 z" class="f-x"/></marker></defs>
<text x="20" y="22" class="hd">MHA</text>
<text x="320" y="22" text-anchor="end" class="xs">H_kv = H_q = 32</text>
<rect x="20" y="34" width="300" height="296" rx="10" class="grp"/>
<rect x="40" y="52" width="70" height="24" rx="7" class="n-c"/>
<text x="75" y="68.5" text-anchor="middle" class="sm b">Q1</text>
<rect x="40" y="84" width="70" height="24" rx="7" class="n-c"/>
<text x="75" y="100.5" text-anchor="middle" class="sm b">Q2</text>
<rect x="40" y="116" width="70" height="24" rx="7" class="n-c"/>
<text x="75" y="132.5" text-anchor="middle" class="sm b">Q3</text>
<rect x="40" y="148" width="70" height="24" rx="7" class="n-c"/>
<text x="75" y="164.5" text-anchor="middle" class="sm b">Q4</text>
<rect x="40" y="180" width="70" height="24" rx="7" class="n-c"/>
<text x="75" y="196.5" text-anchor="middle" class="sm b">Q5</text>
<rect x="40" y="212" width="70" height="24" rx="7" class="n-c"/>
<text x="75" y="228.5" text-anchor="middle" class="sm b">Q6</text>
<rect x="40" y="244" width="70" height="24" rx="7" class="n-c"/>
<text x="75" y="260.5" text-anchor="middle" class="sm b">Q7</text>
<rect x="40" y="276" width="70" height="24" rx="7" class="n-c"/>
<text x="75" y="292.5" text-anchor="middle" class="sm b">Q8</text>
<rect x="210" y="52" width="92" height="24" rx="7" class="n-m"/>
<text x="256" y="68.5" text-anchor="middle" class="sm b">K1 V1</text>
<rect x="210" y="84" width="92" height="24" rx="7" class="n-m"/>
<text x="256" y="100.5" text-anchor="middle" class="sm b">K2 V2</text>
<rect x="210" y="116" width="92" height="24" rx="7" class="n-m"/>
<text x="256" y="132.5" text-anchor="middle" class="sm b">K3 V3</text>
<rect x="210" y="148" width="92" height="24" rx="7" class="n-m"/>
<text x="256" y="164.5" text-anchor="middle" class="sm b">K4 V4</text>
<rect x="210" y="180" width="92" height="24" rx="7" class="n-m"/>
<text x="256" y="196.5" text-anchor="middle" class="sm b">K5 V5</text>
<rect x="210" y="212" width="92" height="24" rx="7" class="n-m"/>
<text x="256" y="228.5" text-anchor="middle" class="sm b">K6 V6</text>
<rect x="210" y="244" width="92" height="24" rx="7" class="n-m"/>
<text x="256" y="260.5" text-anchor="middle" class="sm b">K7 V7</text>
<rect x="210" y="276" width="92" height="24" rx="7" class="n-m"/>
<text x="256" y="292.5" text-anchor="middle" class="sm b">K8 V8</text>
<path d="M110,64 L208,64" class="w-c" marker-end="url(#heads-ac)"/>
<path d="M110,96 L208,96" class="w-c" marker-end="url(#heads-ac)"/>
<path d="M110,128 L208,128" class="w-c" marker-end="url(#heads-ac)"/>
<path d="M110,160 L208,160" class="w-c" marker-end="url(#heads-ac)"/>
<path d="M110,192 L208,192" class="w-c" marker-end="url(#heads-ac)"/>
<path d="M110,224 L208,224" class="w-c" marker-end="url(#heads-ac)"/>
<path d="M110,256 L208,256" class="w-c" marker-end="url(#heads-ac)"/>
<path d="M110,288 L208,288" class="w-c" marker-end="url(#heads-ac)"/>
<text x="170" y="322" text-anchor="middle" class="xs">8 of 32 query heads drawn</text>
<text x="20" y="356" class="b">2 · 32 · 128 = 8,192</text>
<text x="320" y="356" text-anchor="end" class="sm">baseline</text>
<text x="20" y="374" class="xs">numbers cached per token per layer</text>
<rect x="20" y="386" width="300" height="12" rx="2" class="n-p"/>
<rect x="20" y="386" width="300" height="12" rx="2" class="n-mm"/>
<text x="20" y="416" class="xs">every Q head owns its K, V</text>
<text x="350" y="22" class="hd">GQA-8</text>
<text x="650" y="22" text-anchor="end" class="xs">H_kv = 8, groups of 4</text>
<rect x="350" y="34" width="300" height="296" rx="10" class="grp"/>
<rect x="370" y="52" width="70" height="24" rx="7" class="n-c"/>
<text x="405" y="68.5" text-anchor="middle" class="sm b">Q1</text>
<rect x="370" y="84" width="70" height="24" rx="7" class="n-c"/>
<text x="405" y="100.5" text-anchor="middle" class="sm b">Q2</text>
<rect x="370" y="116" width="70" height="24" rx="7" class="n-c"/>
<text x="405" y="132.5" text-anchor="middle" class="sm b">Q3</text>
<rect x="370" y="148" width="70" height="24" rx="7" class="n-c"/>
<text x="405" y="164.5" text-anchor="middle" class="sm b">Q4</text>
<rect x="370" y="180" width="70" height="24" rx="7" class="n-c"/>
<text x="405" y="196.5" text-anchor="middle" class="sm b">Q5</text>
<rect x="370" y="212" width="70" height="24" rx="7" class="n-c"/>
<text x="405" y="228.5" text-anchor="middle" class="sm b">Q6</text>
<rect x="370" y="244" width="70" height="24" rx="7" class="n-c"/>
<text x="405" y="260.5" text-anchor="middle" class="sm b">Q7</text>
<rect x="370" y="276" width="70" height="24" rx="7" class="n-c"/>
<text x="405" y="292.5" text-anchor="middle" class="sm b">Q8</text>
<rect x="540" y="52" width="92" height="120" rx="7" class="n-m"/>
<circle cx="548" cy="60" r="2.6" class="f-m"/>
<text x="586" y="110" text-anchor="middle" class="sm b">K1 V1</text>
<text x="586" y="125" text-anchor="middle" class="xs">serves Q1–Q4</text>
<rect x="540" y="180" width="92" height="120" rx="7" class="n-m"/>
<circle cx="548" cy="188" r="2.6" class="f-m"/>
<text x="586" y="238" text-anchor="middle" class="sm b">K2 V2</text>
<text x="586" y="253" text-anchor="middle" class="xs">serves Q5–Q8</text>
<path d="M440,64 L538,64" class="w-c" marker-end="url(#heads-ac)"/>
<path d="M440,96 L538,96" class="w-c" marker-end="url(#heads-ac)"/>
<path d="M440,128 L538,128" class="w-c" marker-end="url(#heads-ac)"/>
<path d="M440,160 L538,160" class="w-c" marker-end="url(#heads-ac)"/>
<path d="M440,192 L538,192" class="w-c" marker-end="url(#heads-ac)"/>
<path d="M440,224 L538,224" class="w-c" marker-end="url(#heads-ac)"/>
<path d="M440,256 L538,256" class="w-c" marker-end="url(#heads-ac)"/>
<path d="M440,288 L538,288" class="w-c" marker-end="url(#heads-ac)"/>
<text x="500" y="322" text-anchor="middle" class="xs">8 of 32 query heads drawn</text>
<text x="350" y="356" class="b">2 · 8 · 128 = 2,048</text>
<text x="650" y="356" text-anchor="end" class="sm b f-s">4× smaller</text>
<text x="350" y="374" class="xs">numbers cached per token per layer</text>
<rect x="350" y="386" width="300" height="12" rx="2" class="n-p"/>
<rect x="350" y="386" width="75" height="12" rx="2" class="n-mm"/>
<text x="350" y="416" class="xs">4 Q heads share each K, V</text>
<text x="680" y="22" class="hd">MQA</text>
<text x="980" y="22" text-anchor="end" class="xs">H_kv = 1</text>
<rect x="680" y="34" width="300" height="296" rx="10" class="grp"/>
<rect x="700" y="52" width="70" height="24" rx="7" class="n-c"/>
<text x="735" y="68.5" text-anchor="middle" class="sm b">Q1</text>
<rect x="700" y="84" width="70" height="24" rx="7" class="n-c"/>
<text x="735" y="100.5" text-anchor="middle" class="sm b">Q2</text>
<rect x="700" y="116" width="70" height="24" rx="7" class="n-c"/>
<text x="735" y="132.5" text-anchor="middle" class="sm b">Q3</text>
<rect x="700" y="148" width="70" height="24" rx="7" class="n-c"/>
<text x="735" y="164.5" text-anchor="middle" class="sm b">Q4</text>
<rect x="700" y="180" width="70" height="24" rx="7" class="n-c"/>
<text x="735" y="196.5" text-anchor="middle" class="sm b">Q5</text>
<rect x="700" y="212" width="70" height="24" rx="7" class="n-c"/>
<text x="735" y="228.5" text-anchor="middle" class="sm b">Q6</text>
<rect x="700" y="244" width="70" height="24" rx="7" class="n-c"/>
<text x="735" y="260.5" text-anchor="middle" class="sm b">Q7</text>
<rect x="700" y="276" width="70" height="24" rx="7" class="n-c"/>
<text x="735" y="292.5" text-anchor="middle" class="sm b">Q8</text>
<rect x="870" y="52" width="92" height="248" rx="7" class="n-m"/>
<circle cx="878" cy="60" r="2.6" class="f-m"/>
<text x="916" y="174" text-anchor="middle" class="sm b">K V</text>
<text x="916" y="189" text-anchor="middle" class="xs">shared by all</text>
<path d="M770,64 L868,64" class="w-c" marker-end="url(#heads-ac)"/>
<path d="M770,96 L868,96" class="w-c" marker-end="url(#heads-ac)"/>
<path d="M770,128 L868,128" class="w-c" marker-end="url(#heads-ac)"/>
<path d="M770,160 L868,160" class="w-c" marker-end="url(#heads-ac)"/>
<path d="M770,192 L868,192" class="w-c" marker-end="url(#heads-ac)"/>
<path d="M770,224 L868,224" class="w-c" marker-end="url(#heads-ac)"/>
<path d="M770,256 L868,256" class="w-c" marker-end="url(#heads-ac)"/>
<path d="M770,288 L868,288" class="w-c" marker-end="url(#heads-ac)"/>
<text x="830" y="322" text-anchor="middle" class="xs">8 of 32 query heads drawn</text>
<text x="680" y="356" class="b">2 · 1 · 128 = 256</text>
<text x="980" y="356" text-anchor="end" class="sm b f-s">32× smaller</text>
<text x="680" y="374" class="xs">numbers cached per token per layer</text>
<rect x="680" y="386" width="300" height="12" rx="2" class="n-p"/>
<rect x="680" y="386" width="9.375" height="12" rx="2" class="n-mm"/>
<text x="680" y="416" class="xs">all 32 Q heads read one K, V</text>
</svg>
