<svg class="vsp" xmlns="http://www.w3.org/2000/svg" viewBox="0 0 1000 410" role="img" aria-label="Per-layer caches: MHA/GQA own one per layer, MLA thins it, CLA shares pairs, YOCO caches once">
<style>.vsp{font-family:var(--ie-font-mono,"IBM Plex Mono",ui-monospace,Consolas,monospace)} .vsp text{font-size:13px;fill:var(--ie-ink,#1c232b)} .vsp .sm{font-size:11.5px;fill:var(--ie-ink-2,#4a5561)} .vsp .xs{font-size:10.5px;fill:var(--ie-ink-2,#4a5561)} .vsp .b{font-weight:600} .vsp .hd{font-family:var(--ie-font-ui,Archivo,"Helvetica Neue",Arial,sans-serif);font-size:15px;font-weight:700;fill:var(--ie-ink,#1c232b)} .vsp .lg{font-size:20px;font-weight:700} .vsp .n{fill:var(--ie-free,#fff);stroke:var(--ie-ink-2,#4a5561);stroke-width:1.2} .vsp .n-c{fill:var(--ie-compute-bg,#d9efec);stroke:var(--ie-compute,#0e7c72);stroke-width:1.3} .vsp .n-m{fill:var(--ie-memory-bg,#f6e8c8);stroke:var(--ie-memory,#b5790a);stroke-width:1.3} .vsp .n-s{fill:var(--ie-shared-bg,#e5e1f8);stroke:var(--ie-shared,#5b47c9);stroke-width:1.3} .vsp .n-x{fill:var(--ie-waste-bg,#f6dade);stroke:var(--ie-waste,#b42b3e);stroke-width:1.3} .vsp .n-p{fill:var(--ie-paper-2,#eceee9);stroke:var(--ie-rule,#d5d9d3);stroke-width:1} .vsp .n-mm{fill:var(--ie-memory,#b5790a);fill-opacity:.5;stroke:var(--ie-memory,#b5790a);stroke-width:1.3} .vsp .grp{fill:none;stroke:var(--ie-ink-2,#4a5561);stroke-width:1;stroke-dasharray:5 4;opacity:.75} .vsp .grp-m{fill:var(--ie-memory,#b5790a);fill-opacity:.06;stroke:var(--ie-memory,#b5790a);stroke-width:1.2;stroke-dasharray:6 4} .vsp .w-i{fill:none;stroke:var(--ie-ink-2,#4a5561);stroke-width:1.3} .vsp .w-c{fill:none;stroke:var(--ie-compute,#0e7c72);stroke-width:1.4} .vsp .w-m{fill:none;stroke:var(--ie-memory,#b5790a);stroke-width:1.4} .vsp .w-s{fill:none;stroke:var(--ie-shared,#5b47c9);stroke-width:1.4} .vsp .w-x{fill:none;stroke:var(--ie-waste,#b42b3e);stroke-width:1.4} .vsp .dash{stroke-dasharray:4 3} .vsp .rule{fill:none;stroke:var(--ie-rule,#d5d9d3);stroke-width:1} .vsp .f-i{fill:var(--ie-ink-2,#4a5561)} .vsp .f-c{fill:var(--ie-compute,#0e7c72)} .vsp .f-m{fill:var(--ie-memory,#b5790a)} .vsp .f-s{fill:var(--ie-shared,#5b47c9)} .vsp .f-x{fill:var(--ie-waste,#b42b3e)}</style>
<defs><marker id="layers-ai" viewBox="0 0 10 10" refX="9" refY="5" markerWidth="7" markerHeight="7" orient="auto-start-reverse"><path d="M0,0 L10,5 L0,10 z" class="f-i"/></marker><marker id="layers-ac" viewBox="0 0 10 10" refX="9" refY="5" markerWidth="7" markerHeight="7" orient="auto-start-reverse"><path d="M0,0 L10,5 L0,10 z" class="f-c"/></marker><marker id="layers-am" viewBox="0 0 10 10" refX="9" refY="5" markerWidth="7" markerHeight="7" orient="auto-start-reverse"><path d="M0,0 L10,5 L0,10 z" class="f-m"/></marker><marker id="layers-as" viewBox="0 0 10 10" refX="9" refY="5" markerWidth="7" markerHeight="7" orient="auto-start-reverse"><path d="M0,0 L10,5 L0,10 z" class="f-s"/></marker><marker id="layers-ax" viewBox="0 0 10 10" refX="9" refY="5" markerWidth="7" markerHeight="7" orient="auto-start-reverse"><path d="M0,0 L10,5 L0,10 z" class="f-x"/></marker></defs>
<text x="20" y="22" class="hd">A · MHA / GQA / MQA</text>
<text x="20" y="40" class="xs">every layer owns KV</text>
<rect x="20" y="56" width="120" height="28" rx="7" class="n-c"/>
<text x="80" y="74.5" text-anchor="middle" class="sm">L1 attention</text>
<rect x="152" y="56" width="90" height="28" rx="7" class="n-m"/>
<text x="197" y="74.5" text-anchor="middle" class="sm b">KV</text>
<rect x="20" y="92" width="120" height="28" rx="7" class="n-c"/>
<text x="80" y="110.5" text-anchor="middle" class="sm">L2 attention</text>
<rect x="152" y="92" width="90" height="28" rx="7" class="n-m"/>
<text x="197" y="110.5" text-anchor="middle" class="sm b">KV</text>
<rect x="20" y="128" width="120" height="28" rx="7" class="n-c"/>
<text x="80" y="146.5" text-anchor="middle" class="sm">L3 attention</text>
<rect x="152" y="128" width="90" height="28" rx="7" class="n-m"/>
<text x="197" y="146.5" text-anchor="middle" class="sm b">KV</text>
<rect x="20" y="164" width="120" height="28" rx="7" class="n-c"/>
<text x="80" y="182.5" text-anchor="middle" class="sm">L4 attention</text>
<rect x="152" y="164" width="90" height="28" rx="7" class="n-m"/>
<text x="197" y="182.5" text-anchor="middle" class="sm b">KV</text>
<rect x="20" y="200" width="120" height="28" rx="7" class="n-c"/>
<text x="80" y="218.5" text-anchor="middle" class="sm">L5 attention</text>
<rect x="152" y="200" width="90" height="28" rx="7" class="n-m"/>
<text x="197" y="218.5" text-anchor="middle" class="sm b">KV</text>
<rect x="20" y="236" width="120" height="28" rx="7" class="n-c"/>
<text x="80" y="254.5" text-anchor="middle" class="sm">L6 attention</text>
<rect x="152" y="236" width="90" height="28" rx="7" class="n-m"/>
<text x="197" y="254.5" text-anchor="middle" class="sm b">KV</text>
<rect x="20" y="272" width="120" height="28" rx="7" class="n-c"/>
<text x="80" y="290.5" text-anchor="middle" class="sm">L7 attention</text>
<rect x="152" y="272" width="90" height="28" rx="7" class="n-m"/>
<text x="197" y="290.5" text-anchor="middle" class="sm b">KV</text>
<rect x="20" y="308" width="120" height="28" rx="7" class="n-c"/>
<text x="80" y="326.5" text-anchor="middle" class="sm">L8 attention</text>
<rect x="152" y="308" width="90" height="28" rx="7" class="n-m"/>
<text x="197" y="326.5" text-anchor="middle" class="sm b">KV</text>
<text x="265" y="22" class="hd">B · MLA</text>
<text x="265" y="40" class="xs">every layer owns a thin latent</text>
<rect x="265" y="56" width="120" height="28" rx="7" class="n-c"/>
<text x="325" y="74.5" text-anchor="middle" class="sm">L1 attn (MLA)</text>
<rect x="397" y="62" width="18" height="16" rx="2" class="n-s"/>
<text x="423" y="74" class="xs">576</text>
<rect x="265" y="92" width="120" height="28" rx="7" class="n-c"/>
<text x="325" y="110.5" text-anchor="middle" class="sm">L2 attn (MLA)</text>
<rect x="397" y="98" width="18" height="16" rx="2" class="n-s"/>
<text x="423" y="110" class="xs">576</text>
<rect x="265" y="128" width="120" height="28" rx="7" class="n-c"/>
<text x="325" y="146.5" text-anchor="middle" class="sm">L3 attn (MLA)</text>
<rect x="397" y="134" width="18" height="16" rx="2" class="n-s"/>
<text x="423" y="146" class="xs">576</text>
<rect x="265" y="164" width="120" height="28" rx="7" class="n-c"/>
<text x="325" y="182.5" text-anchor="middle" class="sm">L4 attn (MLA)</text>
<rect x="397" y="170" width="18" height="16" rx="2" class="n-s"/>
<text x="423" y="182" class="xs">576</text>
<rect x="265" y="200" width="120" height="28" rx="7" class="n-c"/>
<text x="325" y="218.5" text-anchor="middle" class="sm">L5 attn (MLA)</text>
<rect x="397" y="206" width="18" height="16" rx="2" class="n-s"/>
<text x="423" y="218" class="xs">576</text>
<rect x="265" y="236" width="120" height="28" rx="7" class="n-c"/>
<text x="325" y="254.5" text-anchor="middle" class="sm">L6 attn (MLA)</text>
<rect x="397" y="242" width="18" height="16" rx="2" class="n-s"/>
<text x="423" y="254" class="xs">576</text>
<rect x="265" y="272" width="120" height="28" rx="7" class="n-c"/>
<text x="325" y="290.5" text-anchor="middle" class="sm">L7 attn (MLA)</text>
<rect x="397" y="278" width="18" height="16" rx="2" class="n-s"/>
<text x="423" y="290" class="xs">576</text>
<rect x="265" y="308" width="120" height="28" rx="7" class="n-c"/>
<text x="325" y="326.5" text-anchor="middle" class="sm">L8 attn (MLA)</text>
<rect x="397" y="314" width="18" height="16" rx="2" class="n-s"/>
<text x="423" y="326" class="xs">576</text>
<text x="510" y="22" class="hd">C · CLA</text>
<text x="510" y="40" class="xs">adjacent layers share one KV</text>
<rect x="510" y="56" width="120" height="28" rx="7" class="n-c"/>
<text x="570" y="74.5" text-anchor="middle" class="sm">L1 attention</text>
<rect x="642" y="56" width="90" height="28" rx="7" class="n-m"/>
<text x="687" y="74.5" text-anchor="middle" class="sm b">KV1</text>
<rect x="510" y="92" width="120" height="28" rx="7" class="n-c"/>
<text x="570" y="110.5" text-anchor="middle" class="sm">L2 reuses KV1</text>
<path d="M630,106 L687,106 L687,83" class="w-s dash" marker-end="url(#layers-as)"/>
<rect x="510" y="128" width="120" height="28" rx="7" class="n-c"/>
<text x="570" y="146.5" text-anchor="middle" class="sm">L3 attention</text>
<rect x="642" y="128" width="90" height="28" rx="7" class="n-m"/>
<text x="687" y="146.5" text-anchor="middle" class="sm b">KV2</text>
<rect x="510" y="164" width="120" height="28" rx="7" class="n-c"/>
<text x="570" y="182.5" text-anchor="middle" class="sm">L4 reuses KV2</text>
<path d="M630,178 L687,178 L687,155" class="w-s dash" marker-end="url(#layers-as)"/>
<rect x="510" y="200" width="120" height="28" rx="7" class="n-c"/>
<text x="570" y="218.5" text-anchor="middle" class="sm">L5 attention</text>
<rect x="642" y="200" width="90" height="28" rx="7" class="n-m"/>
<text x="687" y="218.5" text-anchor="middle" class="sm b">KV3</text>
<rect x="510" y="236" width="120" height="28" rx="7" class="n-c"/>
<text x="570" y="254.5" text-anchor="middle" class="sm">L6 reuses KV3</text>
<path d="M630,250 L687,250 L687,227" class="w-s dash" marker-end="url(#layers-as)"/>
<rect x="510" y="272" width="120" height="28" rx="7" class="n-c"/>
<text x="570" y="290.5" text-anchor="middle" class="sm">L7 attention</text>
<rect x="642" y="272" width="90" height="28" rx="7" class="n-m"/>
<text x="687" y="290.5" text-anchor="middle" class="sm b">KV4</text>
<rect x="510" y="308" width="120" height="28" rx="7" class="n-c"/>
<text x="570" y="326.5" text-anchor="middle" class="sm">L8 reuses KV4</text>
<path d="M630,322 L687,322 L687,299" class="w-s dash" marker-end="url(#layers-as)"/>
<text x="755" y="22" class="hd">D · YOCO</text>
<text x="755" y="40" class="xs">cache one global KV</text>
<rect x="755" y="56" width="120" height="28" rx="7" class="n-c"/>
<text x="815" y="74.5" text-anchor="middle" class="sm">L1 self-dec</text>
<rect x="887" y="64" width="16" height="12" rx="2" class="n-c"/>
<rect x="755" y="92" width="120" height="28" rx="7" class="n-c"/>
<text x="815" y="110.5" text-anchor="middle" class="sm">L2 self-dec</text>
<rect x="887" y="100" width="16" height="12" rx="2" class="n-c"/>
<rect x="755" y="128" width="120" height="28" rx="7" class="n-c"/>
<text x="815" y="146.5" text-anchor="middle" class="sm">L3 self-dec</text>
<rect x="887" y="136" width="16" height="12" rx="2" class="n-c"/>
<rect x="755" y="164" width="120" height="28" rx="7" class="n-c"/>
<text x="815" y="182.5" text-anchor="middle" class="sm">L4 self-dec</text>
<rect x="887" y="172" width="16" height="12" rx="2" class="n-c"/>
<rect x="755" y="200" width="120" height="28" rx="7" class="n-c"/>
<text x="815" y="218.5" text-anchor="middle" class="sm">L5 cross-dec</text>
<path d="M875,214 L903,214" class="w-s" marker-end="url(#layers-as)"/>
<rect x="755" y="236" width="120" height="28" rx="7" class="n-c"/>
<text x="815" y="254.5" text-anchor="middle" class="sm">L6 cross-dec</text>
<path d="M875,250 L903,250" class="w-s" marker-end="url(#layers-as)"/>
<rect x="755" y="272" width="120" height="28" rx="7" class="n-c"/>
<text x="815" y="290.5" text-anchor="middle" class="sm">L7 cross-dec</text>
<path d="M875,286 L903,286" class="w-s" marker-end="url(#layers-as)"/>
<rect x="755" y="308" width="120" height="28" rx="7" class="n-c"/>
<text x="815" y="326.5" text-anchor="middle" class="sm">L8 cross-dec</text>
<path d="M875,322 L903,322" class="w-s" marker-end="url(#layers-as)"/>
<rect x="905" y="200" width="72" height="136" rx="7" class="n-m"/>
<circle cx="913" cy="208" r="2.6" class="f-m"/>
<text x="941" y="266" text-anchor="middle" class="b">global</text>
<text x="941" y="281" text-anchor="middle" class="xs">KV</text>
<path d="M941,192 L941,198" class="w-m" marker-end="url(#layers-am)"/>
<text x="911" y="74" class="xs">small</text>
<text x="911" y="87" class="xs">fixed cache</text>
<path d="M20,350 L245,350" class="rule"/>
<text x="20" y="368" class="sm b">8 layers → 8 KV copies</text>
<text x="20" y="384" class="xs">GQA/MQA thin each copy,</text>
<text x="20" y="398" class="xs">never make fewer</text>
<path d="M265,350 L490,350" class="rule"/>
<text x="265" y="368" class="sm b">8 copies, ~14× thinner</text>
<text x="265" y="384" class="xs">shrinks the width,</text>
<text x="265" y="398" class="xs">not the layer count</text>
<path d="M510,350 L735,350" class="rule"/>
<text x="510" y="368" class="sm b">8 layers → 4 copies (2×)</text>
<text x="510" y="384" class="xs">arXiv 2405.12981:</text>
<text x="510" y="398" class="xs">~2× vs MQA, near-equal acc.</text>
<path d="M755,350 L980,350" class="rule"/>
<text x="755" y="368" class="sm b">1 global KV + tiny caches</text>
<text x="755" y="384" class="xs">arXiv 2405.05254:</text>
<text x="755" y="398" class="xs">You Only Cache Once</text>
</svg>
