<svg class="vsp" xmlns="http://www.w3.org/2000/svg" viewBox="0 0 1000 370" role="img" aria-label="The scheduler: a request&#x27;s life in blocks, and why continuous batching keeps slots full">
<style>.vsp{font-family:var(--ie-font-mono,"IBM Plex Mono",ui-monospace,Consolas,monospace)} .vsp text{font-size:13px;fill:var(--ie-ink,#1c232b)} .vsp .sm{font-size:11.5px;fill:var(--ie-ink-2,#4a5561)} .vsp .xs{font-size:10.5px;fill:var(--ie-ink-2,#4a5561)} .vsp .b{font-weight:600} .vsp .hd{font-family:var(--ie-font-ui,Archivo,"Helvetica Neue",Arial,sans-serif);font-size:15px;font-weight:700;fill:var(--ie-ink,#1c232b)} .vsp .lg{font-size:20px;font-weight:700} .vsp .n{fill:var(--ie-free,#fff);stroke:var(--ie-ink-2,#4a5561);stroke-width:1.2} .vsp .n-c{fill:var(--ie-compute-bg,#d9efec);stroke:var(--ie-compute,#0e7c72);stroke-width:1.3} .vsp .n-m{fill:var(--ie-memory-bg,#f6e8c8);stroke:var(--ie-memory,#b5790a);stroke-width:1.3} .vsp .n-s{fill:var(--ie-shared-bg,#e5e1f8);stroke:var(--ie-shared,#5b47c9);stroke-width:1.3} .vsp .n-x{fill:var(--ie-waste-bg,#f6dade);stroke:var(--ie-waste,#b42b3e);stroke-width:1.3} .vsp .n-p{fill:var(--ie-paper-2,#eceee9);stroke:var(--ie-rule,#d5d9d3);stroke-width:1} .vsp .n-mm{fill:var(--ie-memory,#b5790a);fill-opacity:.5;stroke:var(--ie-memory,#b5790a);stroke-width:1.3} .vsp .grp{fill:none;stroke:var(--ie-ink-2,#4a5561);stroke-width:1;stroke-dasharray:5 4;opacity:.75} .vsp .grp-m{fill:var(--ie-memory,#b5790a);fill-opacity:.06;stroke:var(--ie-memory,#b5790a);stroke-width:1.2;stroke-dasharray:6 4} .vsp .w-i{fill:none;stroke:var(--ie-ink-2,#4a5561);stroke-width:1.3} .vsp .w-c{fill:none;stroke:var(--ie-compute,#0e7c72);stroke-width:1.4} .vsp .w-m{fill:none;stroke:var(--ie-memory,#b5790a);stroke-width:1.4} .vsp .w-s{fill:none;stroke:var(--ie-shared,#5b47c9);stroke-width:1.4} .vsp .w-x{fill:none;stroke:var(--ie-waste,#b42b3e);stroke-width:1.4} .vsp .dash{stroke-dasharray:4 3} .vsp .rule{fill:none;stroke:var(--ie-rule,#d5d9d3);stroke-width:1} .vsp .f-i{fill:var(--ie-ink-2,#4a5561)} .vsp .f-c{fill:var(--ie-compute,#0e7c72)} .vsp .f-m{fill:var(--ie-memory,#b5790a)} .vsp .f-s{fill:var(--ie-shared,#5b47c9)} .vsp .f-x{fill:var(--ie-waste,#b42b3e)}</style>
<defs><marker id="sched-ai" viewBox="0 0 10 10" refX="9" refY="5" markerWidth="7" markerHeight="7" orient="auto-start-reverse"><path d="M0,0 L10,5 L0,10 z" class="f-i"/></marker><marker id="sched-ac" viewBox="0 0 10 10" refX="9" refY="5" markerWidth="7" markerHeight="7" orient="auto-start-reverse"><path d="M0,0 L10,5 L0,10 z" class="f-c"/></marker><marker id="sched-am" viewBox="0 0 10 10" refX="9" refY="5" markerWidth="7" markerHeight="7" orient="auto-start-reverse"><path d="M0,0 L10,5 L0,10 z" class="f-m"/></marker><marker id="sched-as" viewBox="0 0 10 10" refX="9" refY="5" markerWidth="7" markerHeight="7" orient="auto-start-reverse"><path d="M0,0 L10,5 L0,10 z" class="f-s"/></marker><marker id="sched-ax" viewBox="0 0 10 10" refX="9" refY="5" markerWidth="7" markerHeight="7" orient="auto-start-reverse"><path d="M0,0 L10,5 L0,10 z" class="f-x"/></marker></defs>
<rect x="20" y="42" width="98" height="36" rx="7" class="n"/>
<text x="69" y="64.5" text-anchor="middle" class="xs b">arrive</text>
<rect x="136" y="42" width="98" height="36" rx="7" class="n"/>
<text x="185" y="64.5" text-anchor="middle" class="xs b">tokenize</text>
<polygon points="252,60 308,34 364,60 308,86" class="n"/>
<text x="308" y="64.5" text-anchor="middle" class="xs">prefix hit?</text>
<rect x="382" y="42" width="98" height="36" rx="7" class="n-c"/>
<text x="431" y="64.5" text-anchor="middle" class="xs b">prefill</text>
<rect x="498" y="42" width="98" height="36" rx="7" class="n-s"/>
<text x="547" y="64.5" text-anchor="middle" class="xs b">decode step</text>
<polygon points="614,60 670,34 726,60 670,86" class="n"/>
<text x="670" y="64.5" text-anchor="middle" class="xs">block full?</text>
<polygon points="744,60 800,34 856,60 800,86" class="n"/>
<text x="800" y="64.5" text-anchor="middle" class="xs">EOS?</text>
<rect x="874" y="42" width="98" height="36" rx="7" class="n-m"/>
<text x="923" y="64.5" text-anchor="middle" class="xs b">free blocks</text>
<path d="M118,60 L134,60" class="w-i" marker-end="url(#sched-ai)"/>
<path d="M234,60 L250,60" class="w-i" marker-end="url(#sched-ai)"/>
<path d="M364,60 L380,60" class="w-i" marker-end="url(#sched-ai)"/>
<path d="M480,60 L496,60" class="w-i" marker-end="url(#sched-ai)"/>
<path d="M596,60 L612,60" class="w-i" marker-end="url(#sched-ai)"/>
<path d="M726,60 L742,60" class="w-i" marker-end="url(#sched-ai)"/>
<path d="M856,60 L872,60" class="w-i" marker-end="url(#sched-ai)"/>
<text x="308" y="104" text-anchor="middle" class="xs f-s">hit: reuse blocks</text>
<text x="308" y="118" text-anchor="middle" class="xs">miss: allocate</text>
<text x="670" y="104" text-anchor="middle" class="xs f-m">yes: append 1 block</text>
<path d="M800,84 L800,136 L547,136 L547,80" class="w-s dash" marker-end="url(#sched-as)"/>
<text x="677" y="150" text-anchor="middle" class="xs">no: next iteration (every running request, one token each)</text>
<text x="20" y="196" class="xs b">Static vs continuous batching · A = 20, B = 500, C = 50, D = 1,000 tokens (linear scale)</text>
<text x="20" y="226" class="xs b">A</text>
<rect x="40" y="212" width="8" height="18" rx="3" class="n-s"/>
<rect x="48" y="212" width="392" height="18" rx="3" class="n-x" opacity="0.55"/>
<text x="20" y="252" class="xs b">B</text>
<rect x="40" y="238" width="200" height="18" rx="3" class="n-s"/>
<rect x="240" y="238" width="200" height="18" rx="3" class="n-x" opacity="0.55"/>
<text x="20" y="278" class="xs b">C</text>
<rect x="40" y="264" width="20" height="18" rx="3" class="n-s"/>
<rect x="60" y="264" width="380" height="18" rx="3" class="n-x" opacity="0.55"/>
<text x="20" y="304" class="xs b">D</text>
<rect x="40" y="290" width="400" height="18" rx="3" class="n-s"/>
<text x="40" y="334" class="xs b f-x">static: slots idle until D ends → 39% useful</text>
<rect x="540" y="212" width="6" height="18" rx="3" class="n-s"/>
<rect x="548" y="212" width="118" height="18" rx="3" class="n-s"/>
<text x="554" y="225" class="xs b">E</text>
<rect x="668" y="212" width="158" height="18" rx="3" class="n-s"/>
<text x="674" y="225" class="xs b">G</text>
<rect x="828" y="212" width="110" height="18" rx="3" class="n-s"/>
<text x="834" y="225" class="xs b">I</text>
<rect x="540" y="238" width="198" height="18" rx="3" class="n-s"/>
<text x="546" y="251" class="xs b">B</text>
<rect x="740" y="238" width="198" height="18" rx="3" class="n-s"/>
<text x="746" y="251" class="xs b">F</text>
<rect x="540" y="264" width="18" height="18" rx="3" class="n-s"/>
<text x="546" y="277" class="xs b">C</text>
<rect x="560" y="264" width="238" height="18" rx="3" class="n-s"/>
<text x="566" y="277" class="xs b">H</text>
<rect x="800" y="264" width="138" height="18" rx="3" class="n-s"/>
<text x="806" y="277" class="xs b">J</text>
<rect x="540" y="290" width="398" height="18" rx="3" class="n-s"/>
<text x="546" y="303" class="xs b">D</text>
<text x="540" y="334" class="xs b f-c">continuous: a finished slot is refilled the next iteration</text>
<text x="540" y="350" class="xs">(E … J illustrative; needs per-iteration alloc/free = paged KV)</text>
</svg>
